<?xml version="1.0" standalone="no"?>
<!DOCTYPE svg PUBLIC "-//W3C//DTD SVG 20010904//EN"
 "http://www.w3.org/TR/2001/REC-SVG-20010904/DTD/svg10.dtd">
<svg version="1.0" xmlns="http://www.w3.org/2000/svg"
 width="1600.000000pt" height="1600.000000pt" viewBox="0 0 1600.000000 1600.000000"
 preserveAspectRatio="xMidYMid meet">
<metadata>
Created by potrace 1.15, written by Peter Selinger 2001-2017
</metadata>
<g transform="translate(0.000000,1600.000000) scale(0.100000,-0.100000)"
fill="#000000" stroke="none">
<path d="M3836 13053 c-4 -5 -40 -11 -79 -15 -71 -8 -165 -19 -304 -38 -40 -6
-107 -14 -148 -20 -41 -5 -109 -14 -150 -20 -71 -9 -115 -15 -295 -40 -41 -5
-109 -14 -150 -20 -41 -5 -109 -14 -150 -20 -41 -6 -104 -13 -140 -16 -36 -3
-74 -9 -85 -14 -11 -5 -47 -11 -80 -14 -33 -3 -96 -10 -140 -16 -44 -6 -106
-13 -137 -16 l-58 -6 0 -879 0 -879 684 0 c614 0 684 -2 690 -16 3 -9 6 -1809
6 -4000 l0 -3984 1200 0 1200 0 -2 5008 -3 5007 -926 3 c-509 1 -929 -1 -933
-5z"/>
<path d="M8261 13019 c-20 -23 -58 -65 -86 -93 -27 -28 -63 -69 -79 -90 -16
-21 -52 -62 -80 -90 -28 -28 -63 -68 -79 -88 -15 -20 -50 -60 -77 -88 -27 -28
-62 -68 -77 -88 -16 -20 -45 -54 -65 -74 l-38 -36 0 -4335 c0 -2385 3 -4337 8
-4339 4 -1 27 -28 52 -58 25 -30 72 -82 106 -116 33 -34 74 -79 90 -100 16
-21 54 -64 84 -94 30 -30 75 -80 100 -110 25 -30 73 -83 106 -117 l61 -63
2337 0 c1901 0 2336 2 2336 13 0 7 18 33 40 57 22 24 40 48 40 53 0 6 8 17 18
26 10 9 29 32 42 51 13 19 32 42 42 51 10 9 18 20 18 26 0 5 18 29 40 53 22
24 40 48 40 53 0 6 8 17 18 26 10 9 29 32 42 51 13 19 32 42 42 51 10 9 18 20
18 26 0 5 18 29 40 53 22 24 40 50 40 57 0 7 5 13 10 13 7 0 10 1453 10 4338
0 4326 0 4338 -20 4352 -11 8 -20 19 -20 25 0 6 -8 20 -18 31 -10 10 -28 35
-42 54 -13 19 -32 42 -42 51 -10 9 -18 21 -18 26 0 6 -13 24 -30 41 -16 18
-30 35 -30 40 0 4 -16 25 -35 46 -19 21 -35 42 -35 46 0 4 -16 25 -35 46 -19
21 -35 42 -35 46 0 5 -13 22 -30 40 -16 17 -30 35 -30 40 0 4 -13 22 -30 40
-16 17 -30 35 -30 41 0 5 -12 20 -27 33 l-28 24 -2314 0 -2314 0 -36 -41z
m4379 -2449 l0 -850 -590 0 -590 0 0 -2620 0 -2620 -872 2 -873 3 -3 2617 -2
2618 -578 2 -577 3 -3 825 c-1 454 0 835 3 848 l5 22 2040 0 2040 0 0 -850z"/>
</g>
</svg>
